<svg width="40" height="36" viewBox="0 0 40 36" fill="none" xmlns="http://www.w3.org/2000/svg">
<g id="Group">
<path id="Vector" d="M39.998 11.42C39.998 14.26 38.898 16.92 36.898 18.92L21.198 34.62C21.118 34.7 20.898 34.88 20.798 34.94C20.558 35.1 20.278 35.18 19.998 35.18C19.718 35.18 19.418 35.1 19.178 34.94C19.058 34.86 18.958 34.78 18.838 34.66L3.11805 18.92C1.09805 16.92 -0.00195312 14.26 -0.00195312 11.42C-0.00195312 8.57998 1.09805 5.91998 3.11805 3.91998C5.11225 1.94045 7.80818 0.82959 10.618 0.82959C13.4279 0.82959 16.1238 1.94045 18.118 3.91998L19.998 5.81997L21.898 3.91998C26.038 -0.200025 32.758 -0.200025 36.878 3.91998C38.898 5.91998 39.998 8.57998 39.998 11.42Z" fill="white"/>
</g>
</svg>
